<?xml version="1.0" standalone="no"?>
<!DOCTYPE svg PUBLIC "-//W3C//DTD SVG 20010904//EN"
 "http://www.w3.org/TR/2001/REC-SVG-20010904/DTD/svg10.dtd">
<svg version="1.0" xmlns="http://www.w3.org/2000/svg"
 width="768.000000pt" height="1024.000000pt" viewBox="0 0 768.000000 1024.000000"
 preserveAspectRatio="xMidYMid meet">

<g transform="translate(0.000000,1024.000000) scale(0.100000,-0.100000)"
fill="#000000" stroke="none">
<path d="M0 8899 c0 -1270 1 -1340 18 -1338 43 4 55 -15 32 -51 -8 -12 -13
-13 -30 -2 -18 11 -20 10 -20 -14 0 -21 4 -25 18 -19 9 4 46 7 82 7 63 1 65 0
68 -26 2 -17 9 -26 20 -26 27 0 39 13 47 48 4 22 12 32 26 32 13 0 18 -6 16
-22 -1 -14 4 -23 16 -26 19 -4 38 29 19 36 -16 5 -16 59 0 64 17 6 2 38 -18
38 -9 0 -18 -9 -21 -20 -8 -28 -34 -26 -29 3 3 12 5 28 5 35 1 6 10 12 21 12
11 0 20 5 20 10 0 18 -35 11 -48 -10 -15 -25 -45 -27 -40 -2 2 9 12 17 23 17
11 0 21 8 23 18 2 9 7 17 12 17 4 0 21 14 38 31 30 31 57 24 30 -8 -10 -13
-10 -17 0 -20 6 -3 12 -17 12 -32 0 -35 5 -39 35 -33 21 4 25 10 25 39 0 20 4
32 10 28 13 -8 13 -52 0 -60 -6 -3 -10 -15 -10 -26 0 -20 -15 -26 -25 -9 -3 6
-15 10 -27 10 -18 0 -19 -4 -13 -37 8 -42 15 -54 22 -35 6 17 23 15 23 -3 0
-18 -1 -18 38 -4 22 8 36 8 49 0 15 -10 14 -10 -9 -5 -21 5 -26 2 -25 -13 2
-14 -6 -19 -35 -21 -21 -2 -38 -4 -38 -6 0 -2 7 -17 16 -34 13 -26 19 -30 33
-22 10 5 21 7 23 4 3 -3 26 0 51 7 41 10 45 13 38 33 -9 25 -3 56 10 56 5 0 9
18 9 40 0 22 5 40 10 40 6 0 10 -11 10 -25 0 -22 4 -25 36 -25 43 0 94 -28 94
-52 0 -19 18 -34 28 -24 3 4 0 16 -7 28 -11 18 -11 20 1 15 11 -4 13 3 11 27
-4 28 -3 29 10 14 15 -19 57 -25 57 -9 0 5 9 12 19 16 11 3 23 15 26 26 4 10
11 17 16 13 6 -3 15 -1 22 4 7 5 21 12 32 14 18 4 17 6 -7 16 -30 12 -38 42
-13 42 8 0 15 4 15 8 0 4 19 7 43 7 31 -1 41 -6 38 -16 -2 -8 -3 -22 -3 -31 0
-10 -3 -20 -9 -23 -5 -4 -9 3 -9 14 0 22 -19 30 -21 9 -3 -29 4 -64 13 -75 7
-9 3 -14 -16 -19 -14 -3 -26 -11 -27 -18 0 -6 -2 -21 -3 -33 -2 -14 3 -23 11
-23 10 0 12 7 8 23 -5 18 -4 19 4 6 6 -9 22 -20 36 -23 39 -10 30 -26 -14 -26
-22 0 -42 -4 -46 -9 -6 -10 -37 -7 -56 5 -6 3 -15 1 -19 -7 -5 -8 -23 -12 -44
-11 -19 1 -37 -2 -41 -8 -3 -5 -23 -10 -44 -10 -21 0 -40 -3 -44 -6 -3 -4 -39
-8 -79 -10 -40 -2 -84 -4 -98 -5 -14 0 -33 -5 -43 -11 -12 -6 -23 -6 -32 2 -8
6 -16 7 -19 2 -3 -5 -41 -13 -83 -17 -43 -4 -84 -12 -90 -17 -7 -6 -18 -8 -25
-5 -7 2 -42 0 -78 -5 -36 -5 -75 -10 -87 -10 -29 -1 -31 -33 -5 -66 16 -21 20
-22 31 -8 8 9 20 16 27 16 8 0 11 6 7 16 -5 13 0 15 26 12 20 -2 35 3 41 12 6
9 10 10 10 3 0 -18 39 -26 56 -12 13 10 17 10 24 0 5 -10 16 -11 36 -6 39 11
101 9 128 -3 11 -6 38 -13 59 -17 20 -3 37 -10 37 -15 0 -6 6 -10 14 -10 8 0
22 -7 30 -16 9 -8 16 -11 16 -5 0 7 8 7 26 1 43 -17 61 -12 67 16 3 18 1 24
-9 20 -20 -8 -24 7 -9 27 12 17 14 17 23 1 14 -24 45 -11 37 16 -7 21 0 24 43
20 14 -1 22 4 22 14 0 22 21 20 27 -2 3 -13 15 -18 48 -20 35 -1 43 1 39 13
-4 10 0 15 15 15 19 0 20 -3 11 -20 -14 -26 3 -60 30 -60 11 0 20 -5 20 -12 0
-6 3 -8 7 -5 3 4 12 2 19 -4 16 -13 37 -2 30 17 -3 8 1 14 8 14 8 0 17 -6 19
-12 3 -7 6 -4 6 8 1 11 -5 29 -13 39 -14 19 -15 19 -33 2 -11 -9 -23 -14 -26
-10 -11 10 -8 45 3 38 5 -3 19 4 30 15 12 12 28 19 37 16 8 -3 22 -6 32 -6 9
0 26 -7 37 -15 16 -12 17 -16 5 -24 -22 -14 5 -74 30 -66 10 3 27 1 38 -4 34
-19 35 6 1 47 -29 35 -30 37 -10 40 12 2 25 14 30 28 12 32 34 30 59 -3 11
-16 21 -22 21 -15 0 13 37 16 66 5 16 -6 16 -7 -2 -14 -17 -6 -16 -8 9 -18 30
-12 31 -14 17 -42 -9 -16 -7 -19 10 -19 11 0 20 5 20 10 0 6 10 10 23 10 12 0
35 14 50 30 33 34 44 37 50 13 4 -16 5 -16 6 -1 1 9 16 21 36 28 24 8 35 18
35 31 0 10 4 19 8 19 5 0 14 10 19 23 l11 22 13 -29 c12 -25 11 -30 -6 -42
-15 -11 -18 -24 -16 -64 2 -45 0 -50 -18 -50 -11 0 -25 -9 -31 -19 -17 -34
-12 -44 20 -39 18 3 35 -1 41 -9 8 -9 8 -13 0 -13 -6 0 -11 -13 -11 -28 0 -20
7 -33 25 -42 14 -7 28 -10 32 -7 3 4 -1 7 -10 7 -19 0 -22 17 -7 40 7 10 10
11 10 2 0 -9 11 -10 40 -6 33 5 40 4 40 -10 0 -9 -7 -16 -15 -16 -43 0 20 -44
105 -74 56 -19 70 -20 70 -2 0 9 8 12 25 8 37 -7 43 23 16 71 -26 45 -25 52 5
28 27 -22 57 -78 45 -85 -12 -8 -21 -46 -10 -46 5 0 17 9 26 20 10 11 21 20
25 20 14 0 9 -37 -6 -49 -8 -7 -17 -30 -21 -52 -4 -21 -10 -39 -13 -39 -4 0
-16 -19 -26 -43 -10 -23 -29 -65 -42 -93 -13 -28 -24 -61 -24 -72 0 -23 -14
-29 -25 -12 -15 24 -25 6 -25 -45 0 -42 -7 -70 -29 -113 -34 -66 -73 -160 -91
-217 -7 -22 -20 -49 -30 -60 -10 -11 -23 -38 -30 -60 -7 -22 -16 -42 -20 -45
-10 -7 -50 -99 -50 -115 0 -7 -6 -18 -14 -24 -8 -7 -17 -27 -20 -45 -4 -18
-15 -41 -26 -51 -11 -10 -20 -24 -20 -32 0 -27 -85 -216 -100 -221 -22 -8 -30
-23 -30 -62 0 -19 -11 -55 -25 -79 -14 -23 -25 -48 -25 -53 0 -6 -25 -63 -56
-127 -114 -236 -115 -240 -75 -239 17 1 32 8 35 17 4 9 17 34 30 56 50 85 76
139 76 155 0 10 11 34 25 54 14 20 25 43 25 52 0 8 4 22 9 32 5 9 16 33 25 52
25 52 64 103 92 118 29 15 30 21 7 38 -15 11 -16 16 -6 31 34 49 63 116 63
143 0 39 13 64 53 100 19 17 32 39 33 56 1 16 3 32 3 37 1 4 8 7 16 7 19 0 37
35 42 80 2 19 10 40 18 46 19 15 85 143 85 166 0 15 5 18 20 13 11 -4 20 -2
20 4 0 6 -7 11 -15 11 -8 0 -12 6 -9 14 3 8 1 17 -5 21 -17 10 -13 34 9 57 11
12 20 29 20 37 1 9 19 30 40 46 28 21 39 38 40 57 0 15 5 30 10 33 6 3 10 11
10 16 0 6 -5 7 -10 4 -5 -3 -10 -1 -10 4 0 6 5 11 10 11 6 0 10 6 10 14 0 8 5
16 11 18 7 2 17 19 23 38 7 21 22 40 38 48 16 7 31 24 34 38 5 21 24 30 55 26
4 -1 5 8 2 18 -3 11 -9 20 -14 20 -5 0 -9 4 -9 9 0 15 32 6 42 -12 5 -9 16
-17 23 -17 8 0 15 -4 15 -10 0 -5 -10 -10 -21 -10 -19 0 -21 -4 -15 -31 3 -17
6 -35 6 -39 0 -5 22 1 50 13 47 20 50 20 68 3 11 -9 23 -16 28 -14 5 2 20 -8
33 -21 18 -18 26 -21 29 -12 2 7 -2 17 -9 22 -8 5 -10 9 -5 9 20 0 -17 28 -44
34 -23 4 -30 11 -30 30 0 29 30 44 46 22 17 -23 24 -19 24 12 0 34 -9 45 -25
32 -9 -8 -14 -6 -19 5 -3 10 1 15 13 15 12 0 23 11 30 30 10 30 25 38 36 20
12 -20 22 -9 32 35 12 53 -1 88 -35 90 -21 2 -39 -11 -41 -27 -2 -18 -16 -11
-16 7 0 17 -6 19 -32 17 -27 -3 -33 0 -33 15 0 10 7 27 15 37 12 16 15 17 15
4 0 -13 19 -28 37 -28 2 0 3 12 1 27 -2 22 2 28 31 38 18 6 42 21 51 33 24 29
38 28 46 -4 5 -19 1 -29 -15 -40 -24 -17 -20 -34 9 -34 22 0 35 -29 16 -36
-19 -7 -18 -61 2 -69 9 -3 19 1 24 10 10 17 28 20 28 5 0 -5 -15 -20 -34 -32
-23 -15 -33 -29 -32 -45 1 -27 21 -30 35 -5 7 12 20 17 45 17 24 -1 36 3 36
12 0 7 9 13 20 13 13 0 20 -7 20 -19 0 -11 5 -23 10 -26 13 -8 42 14 34 26
-10 17 5 9 32 -16 26 -24 26 -40 1 -40 -7 0 -11 -9 -10 -20 4 -35 -5 -49 -22
-35 -8 7 -22 10 -30 6 -14 -5 -14 -9 2 -31 10 -13 25 -24 33 -25 13 0 13 1 0
11 -12 9 -11 10 8 6 12 -3 22 -1 22 4 0 14 20 11 36 -6 14 -13 14 -16 0 -21
-8 -3 -20 -3 -26 1 -5 3 -10 0 -10 -8 0 -10 -7 -13 -19 -10 -21 5 -33 -17 -21
-38 7 -11 12 -10 28 5 13 11 22 14 27 7 10 -17 35 -13 42 7 4 9 14 23 22 30
14 11 14 14 -3 27 -11 8 -25 15 -32 15 -10 0 -30 31 -22 34 2 1 13 10 25 20
19 16 25 17 38 6 9 -7 18 -10 22 -6 3 3 1 6 -5 6 -7 0 -12 5 -12 10 0 18 25
10 43 -13 22 -30 90 -37 106 -10 6 10 11 13 11 7 0 -20 -40 -63 -63 -66 -12
-2 -21 -9 -19 -16 1 -8 -2 -11 -6 -8 -5 3 -7 17 -4 31 4 25 -4 31 -24 17 -14
-9 -25 -80 -13 -87 12 -8 12 -55 0 -55 -6 0 -13 5 -16 10 -9 15 -25 12 -25 -5
0 -8 4 -15 9 -15 14 0 23 -32 12 -43 -11 -11 -3 -76 11 -94 6 -7 3 -25 -6 -48
-12 -29 -13 -40 -3 -56 10 -17 9 -22 -5 -30 -22 -12 -23 -38 -3 -45 9 -4 15
-19 15 -37 0 -17 6 -38 13 -46 8 -9 19 -49 26 -88 7 -40 17 -75 22 -79 5 -3 9
-14 9 -24 0 -56 107 -210 146 -210 18 0 76 -70 72 -87 -2 -13 -15 -17 -52 -18
-63 -1 -81 -24 -77 -101 2 -40 -1 -56 -12 -60 -8 -3 -18 -21 -22 -41 -5 -30
-9 -34 -29 -29 -23 6 -23 4 -19 -62 2 -37 4 -83 3 -104 0 -32 3 -37 29 -43 42
-9 58 -31 43 -56 -10 -15 -10 -28 -1 -59 7 -22 16 -40 20 -40 5 0 8 -9 6 -21
-2 -24 23 -45 45 -36 9 3 18 25 22 51 4 25 11 48 17 51 14 9 11 25 -5 25 -11
0 -13 15 -10 72 2 52 -1 79 -11 95 -20 30 -20 30 25 38 44 7 46 11 25 39 -18
24 -20 92 -3 102 7 5 27 7 44 5 39 -3 52 14 30 38 -22 24 -20 67 3 90 25 25
21 54 -9 61 -13 3 -26 12 -28 19 -4 12 9 13 69 7 41 -4 84 -8 96 -9 31 -3 28
16 -4 27 -15 5 -37 20 -50 32 -13 14 -36 24 -51 24 -15 0 -50 12 -79 27 -44
22 -51 29 -41 41 10 11 7 18 -12 33 -21 15 -23 21 -12 36 6 10 16 28 21 40 6
11 26 26 45 33 26 8 38 19 42 38 3 15 8 35 11 46 3 12 1 17 -8 14 -8 -3 -14
-11 -14 -19 -1 -23 -15 -39 -36 -39 -11 0 -18 4 -15 9 9 14 -4 41 -20 41 -8 0
-14 7 -14 15 0 8 4 15 8 15 15 0 32 51 26 76 -5 19 0 32 21 54 47 49 155 51
155 2 0 -10 16 -26 35 -36 19 -11 35 -22 35 -26 0 -3 -10 -17 -22 -30 l-22
-23 21 5 c14 4 24 0 27 -9 9 -21 8 -22 -16 -16 -20 5 -17 0 13 -28 20 -19 43
-47 53 -62 9 -15 21 -25 26 -22 10 6 8 -60 -3 -71 -11 -11 -8 -36 3 -29 6 4
22 -1 35 -9 30 -20 34 -56 7 -56 -28 0 -34 -11 -16 -31 17 -19 11 -39 -12 -39
-8 0 -14 -7 -14 -15 0 -8 9 -15 20 -15 11 0 20 -7 20 -15 0 -12 -7 -14 -27
-10 -16 4 -38 8 -50 11 -12 2 -25 -1 -28 -7 -11 -16 4 -59 20 -59 8 0 15 -5
15 -11 0 -8 -14 -10 -45 -6 -26 4 -47 2 -51 -4 -3 -6 -12 -8 -19 -5 -15 5 -41
-20 -28 -26 10 -5 119 -1 153 5 14 2 30 0 37 -5 12 -10 46 16 56 43 4 11 8 11
22 -3 16 -15 16 -17 -3 -27 -11 -6 -29 -27 -41 -47 l-22 -37 -24 23 c-19 18
-28 21 -52 13 -37 -13 -40 -35 -9 -67 29 -28 35 -66 11 -66 -9 0 -18 12 -22
30 -9 45 -22 36 -18 -13 3 -39 1 -45 -26 -61 -16 -9 -29 -24 -29 -32 0 -8 -7
-14 -15 -14 -27 0 -63 -23 -69 -44 -7 -26 9 -45 26 -28 8 8 17 8 31 0 11 -6
15 -13 10 -17 -6 -3 -13 -16 -17 -28 -6 -18 -3 -23 9 -23 12 0 15 6 10 20 -5
15 -2 20 13 20 20 0 23 19 8 53 -10 22 -1 47 17 47 8 0 22 -9 32 -20 23 -25
39 -26 33 -2 -4 15 0 17 24 14 21 -3 26 -7 17 -13 -11 -6 -11 -11 -1 -21 9 -9
12 -9 12 0 0 22 16 12 27 -18 12 -32 40 -40 49 -15 9 24 24 17 24 -10 0 -28
15 -33 24 -8 6 13 11 10 31 -20 30 -43 31 -63 6 -76 -26 -14 -51 -92 -51 -157
0 -43 4 -56 22 -68 41 -29 68 -16 68 33 0 10 9 26 20 36 11 10 20 24 20 31 0
7 11 29 24 49 14 20 32 58 41 86 20 60 37 70 68 38 23 -23 23 -27 15 -134 -5
-60 -9 -120 -9 -133 1 -13 -4 -32 -9 -43 -15 -26 -2 -66 23 -73 20 -5 20 -6 4
-24 -22 -24 -21 -32 8 -64 29 -34 43 -35 54 -5 5 13 21 41 35 62 14 21 26 46
26 56 0 10 9 23 20 29 16 8 20 8 20 -3 0 -24 26 -38 54 -31 23 5 26 11 26 50
0 24 5 44 10 44 6 0 10 15 10 34 0 22 9 45 25 64 14 17 25 34 25 39 0 5 6 21
12 36 14 29 39 35 56 14 16 -19 34 -69 22 -62 -10 6 -13 -20 -13 -95 0 -19 7
-48 14 -64 11 -23 11 -30 1 -34 -20 -6 -14 -39 13 -69 25 -28 25 -28 41 -8 20
26 71 132 80 168 6 26 10 64 13 115 1 27 20 28 49 2 12 -11 29 -20 39 -20 23
-1 54 -43 56 -78 2 -21 8 -28 30 -30 36 -4 36 -31 0 -29 -24 2 -28 -2 -28 -23
0 -24 3 -25 48 -22 41 3 47 1 47 -16 0 -24 35 -35 62 -21 15 8 26 6 46 -7 15
-10 35 -17 46 -15 18 3 17 1 -2 -27 -12 -16 -28 -34 -36 -41 -16 -13 -62 -5
-74 13 -12 19 -78 45 -92 36 -8 -5 -22 -4 -33 1 -10 6 -25 8 -33 5 -8 -3 -45
-11 -82 -16 -36 -6 -72 -16 -79 -21 -6 -6 -22 -12 -35 -14 -13 -2 -39 -8 -58
-14 -19 -6 -50 -11 -68 -11 -18 0 -43 -5 -54 -11 -18 -10 -25 -7 -50 20 -29
31 -31 31 -49 15 -10 -9 -19 -24 -19 -32 0 -9 -14 -28 -32 -42 -30 -25 -32
-32 -31 -84 1 -31 -3 -56 -8 -56 -5 0 -9 -5 -9 -12 0 -6 -7 -20 -16 -29 -15
-17 -15 -20 0 -43 10 -16 22 -23 31 -20 16 6 16 4 18 -108 1 -39 -4 -52 -27
-77 -21 -22 -27 -36 -23 -53 5 -21 0 -25 -46 -40 -71 -22 -229 -25 -246 -4
-16 19 -24 113 -11 121 17 11 12 75 -6 82 -15 5 -16 19 -10 106 l6 100 -35
-36 c-82 -84 -222 -50 -287 68 -34 62 -36 80 -8 65 12 -6 23 -24 26 -40 5 -20
21 -39 58 -63 47 -31 58 -34 101 -29 27 3 58 13 69 24 11 10 25 18 31 18 16 0
65 59 65 79 0 67 -72 184 -145 237 -36 26 -47 29 -120 29 -59 0 -90 -6 -120
-20 -38 -19 -40 -22 -41 -71 -1 -28 -7 -61 -14 -74 -16 -29 -6 -110 21 -161
22 -43 103 -113 164 -140 22 -10 64 -21 94 -25 51 -7 91 -27 91 -47 0 -5 -14
-22 -30 -37 -18 -17 -30 -38 -30 -53 0 -13 -7 -30 -16 -38 -15 -12 -15 -34 0
-70 6 -14 -6 -17 -86 -22 -52 -3 -104 -4 -117 0 -21 5 -18 8 26 34 26 16 48
33 47 39 -3 27 -5 30 -25 30 -33 0 -60 19 -75 56 -13 31 -13 35 6 54 11 11 20
23 20 28 -1 18 -38 51 -104 90 -16 9 -42 28 -59 42 -17 14 -39 23 -50 22 -25
-5 -72 -48 -60 -55 16 -10 6 -123 -9 -117 -18 6 -77 5 -83 -2 -8 -8 11 -49 34
-76 12 -13 33 -25 48 -27 29 -3 83 -55 83 -81 0 -10 -8 -15 -22 -13 -13 1 -36
-3 -52 -10 -20 -8 -86 -10 -228 -5 -110 3 -207 7 -216 9 -34 6 -182 16 -377
25 -110 5 -222 12 -250 14 -27 3 -135 10 -240 16 -104 6 -212 13 -240 15 -27
3 -148 9 -267 14 -120 5 -223 13 -230 17 -7 5 -61 7 -121 5 -60 -1 -168 2
-240 8 -73 6 -215 16 -317 22 -102 6 -206 12 -232 14 l-48 4 0 -2255 0 -2254
3840 0 3840 0 0 5120 0 5120 -3840 0 -3840 0 0 -1341z m653 -937 c-6 -42 -6
-42 -19 -18 -10 20 -10 31 -1 50 17 35 27 19 20 -32z m-213 -16 c0 -3 -4 -8
-10 -11 -5 -3 -10 -1 -10 4 0 6 5 11 10 11 6 0 10 -2 10 -4z m295 -5 c3 -5 1
-12 -5 -16 -5 -3 -10 1 -10 9 0 18 6 21 15 7z m-150 -12 c10 -15 -1 -23 -20
-15 -9 3 -13 10 -10 16 8 13 22 13 30 -1z m414 -60 c-19 -12 -24 -2 -8 17 9
11 14 13 17 4 3 -7 -2 -16 -9 -21z m307 4 c-10 -10 -19 5 -10 18 6 11 8 11 12
0 2 -7 1 -15 -2 -18z m-726 -3 c0 -5 -4 -10 -10 -10 -5 0 -10 5 -10 10 0 6 5
10 10 10 6 0 10 -4 10 -10z m1020 0 c0 -5 -7 -10 -16 -10 -8 0 -12 5 -9 10 3
6 10 10 16 10 5 0 9 -4 9 -10z m-723 -22 c-3 -8 -6 -5 -6 6 -1 11 2 17 5 13 3
-3 4 -12 1 -19z m-334 -13 c11 -16 14 -25 6 -25 -12 0 -38 29 -39 43 0 14 15
6 33 -18z m417 5 c0 -21 -15 -27 -25 -10 -7 12 2 30 16 30 5 0 9 -9 9 -20z
m125 1 c-3 -5 -1 -12 5 -16 15 -9 2 -25 -20 -25 -25 0 -34 16 -18 34 14 17 43
22 33 7z m-438 -26 c2 -11 0 -14 -3 -7 -3 6 -12 12 -20 12 -8 0 -14 5 -14 11
0 19 35 4 37 -16z m643 -1 c0 -14 -4 -23 -10 -19 -5 3 -10 15 -10 26 0 10 5
19 10 19 6 0 10 -12 10 -26z m-580 -15 c0 -20 -15 -26 -25 -9 -9 15 3 43 15
35 5 -3 10 -15 10 -26z m-230 1 c0 -5 -4 -10 -10 -10 -5 0 -10 5 -10 10 0 6 5
10 10 10 6 0 10 -4 10 -10z m395 -38 c-23 -24 -26 -25 -41 -11 -14 15 -14 17
10 23 15 3 26 14 26 22 0 13 3 14 15 4 12 -10 11 -15 -10 -38z m165 38 c0 -5
-7 -10 -16 -10 -8 0 -12 5 -9 10 3 6 10 10 16 10 5 0 9 -4 9 -10z m-510 -10
c0 -5 -5 -10 -11 -10 -5 0 -7 5 -4 10 3 6 8 10 11 10 2 0 4 -4 4 -10z m410
-10 c0 -11 -4 -20 -10 -20 -5 0 -10 -11 -10 -25 0 -14 -4 -25 -10 -25 -13 0
-13 37 0 45 6 4 8 11 5 16 -7 11 3 29 16 29 5 0 9 -9 9 -20z m-520 -4 c0 -2
-7 -7 -16 -10 -8 -3 -12 -2 -9 4 6 10 25 14 25 6z m358 -21 c0 -15 -6 -25 -14
-25 -8 0 -14 10 -14 25 0 15 6 25 14 25 8 0 14 -10 14 -25z m-298 -15 c0 -22
-4 -28 -15 -24 -17 7 -20 20 -5 29 6 4 8 11 5 16 -4 5 -1 9 4 9 6 0 11 -13 11
-30z m80 16 c0 -8 7 -16 15 -20 21 -8 19 -26 -4 -26 -15 0 -18 -5 -14 -22 5
-21 4 -21 -16 4 -17 21 -20 32 -12 46 6 11 7 22 4 26 -3 3 1 6 10 6 10 0 17
-6 17 -14z m1160 4 c-8 -5 -19 -10 -25 -10 -5 0 -3 5 5 10 8 5 20 10 25 10 6
0 3 -5 -5 -10z m-1300 -29 c0 -5 -6 -14 -14 -20 -16 -13 -32 2 -21 19 8 12 35
13 35 1z m1120 3 c0 -13 -30 -34 -50 -34 -25 0 -17 18 14 30 26 11 36 12 36 4z
m800 -14 c0 -11 -6 -38 -12 -60 -11 -35 -17 -40 -43 -40 -29 1 -29 1 -10 16
11 8 26 19 33 23 8 4 14 24 15 44 1 38 17 53 17 17z m-1640 -15 c0 -23 -47
-30 -67 -10 -16 17 -16 17 4 11 12 -4 25 -1 33 9 14 17 30 11 30 -10z m628 -2
c2 -13 -1 -23 -7 -23 -6 0 -11 9 -11 19 0 11 -8 22 -17 25 -11 3 -7 4 7 3 18
-1 26 -9 28 -24z m-98 -4 c0 -5 -7 -9 -15 -9 -8 0 -15 7 -15 15 0 9 6 12 15 9
8 -4 15 -10 15 -15z m373 2 c3 -14 1 -18 -10 -14 -12 5 -14 0 -8 -25 8 -38 -4
-41 -32 -8 l-21 24 21 21 c27 26 43 27 50 2z m72 -18 c3 -13 2 -23 -3 -23 -17
0 -33 27 -26 44 8 20 19 11 29 -21z m103 1 c13 -9 13 -12 -2 -17 -9 -4 -16 -2
-16 3 0 6 -7 10 -15 10 -8 0 -15 6 -15 14 0 18 23 27 29 12 2 -6 11 -16 19
-22z m350 24 c-6 -18 -28 -21 -28 -4 0 9 7 16 16 16 9 0 14 -5 12 -12z m-1891
-35 c-3 -3 -11 -2 -17 2 -9 6 -9 10 1 16 14 8 27 -7 16 -18z m250 5 c-3 -8 -6
-5 -6 6 -1 11 2 17 5 13 3 -3 4 -12 1 -19z m-340 -5 c-9 -9 -20 -13 -24 -9 -4
4 -1 11 7 16 25 16 35 11 17 -7z m1123 7 c-20 -13 -33 -13 -25 0 3 6 14 10 23
10 15 0 15 -2 2 -10z m-1193 -22 c-3 -8 -6 -5 -6 6 -1 11 2 17 5 13 3 -3 4
-12 1 -19z m1863 7 c0 -8 -4 -15 -10 -15 -5 0 -10 -9 -10 -20 0 -23 -24 -52
-55 -67 -28 -13 -90 -2 -90 17 0 15 8 16 58 4 24 -6 27 -4 27 20 0 19 7 29 25
36 14 5 28 17 31 25 8 19 24 19 24 0z m180 5 c0 -6 -4 -18 -9 -28 -5 -9 -12
-25 -15 -34 -3 -10 -15 -18 -26 -18 -15 0 -20 7 -20 25 0 14 -4 25 -10 25 -5
0 -10 5 -10 11 0 7 11 8 30 4 22 -5 32 -3 36 9 7 18 24 22 24 6z m490 0 c0 -5
-7 -10 -16 -10 -8 0 -12 5 -9 10 3 6 10 10 16 10 5 0 9 -4 9 -10z m-1506 -6
c12 -5 8 -12 -20 -30 -44 -30 -67 -20 -28 12 34 27 29 25 48 18z m-356 -16
c-6 -18 -28 -21 -28 -4 0 9 7 16 16 16 9 0 14 -5 12 -12z m482 2 c0 -5 -7 -10
-15 -10 -8 0 -15 -4 -15 -10 0 -5 -7 -10 -15 -10 -8 0 -15 5 -15 10 0 6 7 10
15 10 8 0 15 5 15 10 0 6 7 10 15 10 8 0 15 -4 15 -10z m290 0 c0 -5 -4 -10
-10 -10 -5 0 -10 5 -10 10 0 6 5 10 10 10 6 0 10 -4 10 -10z m980 0 c0 -5 -9
-10 -21 -10 -11 0 -17 5 -14 10 3 6 13 10 21 10 8 0 14 -4 14 -10z m-325 -40
c-10 -16 -55 -12 -55 5 0 22 31 35 47 19 8 -8 11 -18 8 -24z m-2035 21 c0 -6
-4 -13 -10 -16 -5 -3 -10 1 -10 9 0 9 5 16 10 16 6 0 10 -4 10 -9z m1217 -11
c-4 -17 -1 -19 21 -14 15 4 34 13 43 21 14 12 18 11 29 -2 10 -12 7 -21 -19
-50 -17 -20 -31 -39 -31 -44 0 -9 -81 -29 -98 -23 -17 5 -15 37 3 52 8 6 23 9
36 5 28 -9 21 16 -9 31 -26 13 -13 35 27 43 2 1 1 -8 -2 -19z m397 4 c9 -22 8
-24 -9 -24 -8 0 -15 -5 -15 -11 0 -6 7 -9 15 -5 9 3 15 0 15 -8 0 -16 -21 -26
-55 -26 -21 0 -24 4 -22 30 2 23 6 28 19 24 11 -3 19 2 23 16 8 24 21 26 29 4z
m-1670 -18 c-3 -9 -16 -16 -28 -15 -21 0 -21 0 2 11 12 6 22 16 22 21 0 6 2 8
5 5 3 -3 3 -13 -1 -22z m436 14 c0 -6 -8 -14 -17 -17 -10 -4 -27 -15 -37 -25
-41 -38 -49 -17 -9 24 26 28 63 38 63 18z m1104 -9 c3 -5 -1 -11 -9 -15 -9 -3
-15 0 -15 9 0 16 16 20 24 6z m-80 -43 c9 -17 15 -32 14 -34 -2 -1 -34 -5 -73
-9 -64 -6 -68 -5 -51 9 11 9 36 16 55 16 20 0 31 4 24 8 -10 6 -11 21 -4 50 3
9 22 -12 35 -40z m-334 12 c-6 -11 -12 -20 -14 -20 -2 0 -2 9 1 20 3 11 9 20
15 20 5 0 4 -9 -2 -20z m450 11 c0 -5 3 -16 6 -25 4 -11 1 -16 -10 -16 -10 0
-16 9 -16 25 0 14 5 25 10 25 6 0 10 -4 10 -9z m320 -1 c0 -5 -7 -10 -15 -10
-8 0 -15 5 -15 10 0 6 7 10 15 10 8 0 15 -4 15 -10z m-1772 -50 c7 0 12 -4 12
-10 0 -14 -43 -13 -57 1 -14 14 -36 2 -27 -13 5 -8 1 -9 -10 -5 -10 4 -24 7
-32 7 -8 0 -14 6 -14 14 0 16 41 29 64 20 9 -4 16 -1 16 6 0 9 6 8 18 -3 10
-10 24 -17 30 -17z m917 6 c0 -15 -5 -22 -12 -19 -16 6 -16 16 -1 31 7 7 12
12 13 12 0 0 0 -11 0 -24z m475 4 c0 -5 -5 -10 -11 -10 -5 0 -7 5 -4 10 3 6 8
10 11 10 2 0 4 -4 4 -10z m852 -12 c-7 -7 -12 -8 -12 -2 0 14 12 26 19 19 2
-3 -1 -11 -7 -17z m-1379 -15 c-2 -11 49 -10 105 2 23 5 32 4 32 -5 0 -9 10
-10 35 -6 21 4 35 3 35 -3 0 -14 -76 -34 -99 -26 -10 3 -38 1 -61 -4 -44 -10
-74 -5 -65 9 3 5 -4 12 -15 15 -17 5 -19 9 -9 21 13 16 45 14 42 -3z m-806 1
c-3 -3 -12 -4 -19 -1 -8 3 -5 6 6 6 11 1 17 -2 13 -5z m2213 -37 c0 -8 9 -22
19 -31 11 -10 17 -24 14 -32 -7 -20 -33 -18 -33 3 0 15 -2 14 -15 -3 -13 -17
-14 -17 -15 -1 0 10 -8 17 -19 17 -14 0 -21 -10 -27 -37 -9 -44 -8 -42 -19
-66 -4 -10 -3 -29 3 -43 10 -21 9 -24 -9 -24 -12 0 -17 4 -13 11 4 8 0 9 -15
4 -27 -8 -28 10 -1 32 11 10 20 27 20 39 0 12 7 27 15 34 9 8 15 30 15 56 0
24 5 44 10 44 6 0 10 -9 10 -20 0 -13 7 -20 19 -20 28 0 37 21 16 37 -18 12
-18 13 3 13 12 0 22 -6 22 -13z m-1980 -6 c0 -6 -4 -13 -10 -16 -5 -3 -10 1
-10 9 0 9 5 16 10 16 6 0 10 -4 10 -9z m944 -73 c-10 -16 -34 -7 -34 12 0 17
3 19 19 8 11 -7 17 -16 15 -20z m564 7 c-3 -3 -9 2 -12 12 -6 14 -5 15 5 6 7
-7 10 -15 7 -18z m549 -27 c-3 -8 -6 -5 -6 6 -1 11 2 17 5 13 3 -3 4 -12 1
-19z m-1607 8 c0 -3 -4 -8 -10 -11 -5 -3 -10 -1 -10 4 0 6 5 11 10 11 6 0 10
-2 10 -4z m841 -50 c-9 -34 0 -58 14 -36 10 17 22 11 29 -12 7 -30 -9 -45 -30
-27 -14 11 -18 11 -30 -6 -13 -17 -14 -16 -14 21 0 21 7 48 15 58 8 11 15 29
16 40 0 12 3 16 5 9 3 -6 1 -28 -5 -47z m122 47 c-7 -2 -21 -2 -30 0 -10 3 -4
5 12 5 17 0 24 -2 18 -5z m147 -13 c11 -7 11 -10 2 -10 -7 0 -10 -4 -7 -10 3
-5 -1 -10 -9 -10 -9 0 -16 2 -16 4 0 2 -3 11 -6 20 -7 18 12 21 36 6z m-620
-10 c0 -5 -5 -10 -11 -10 -5 0 -7 5 -4 10 3 6 8 10 11 10 2 0 4 -4 4 -10z
m300 -20 c-36 -12 -60 -12 -60 0 0 6 19 10 43 9 36 -1 38 -2 17 -9z m772 -22
c-15 -15 -24 -6 -16 16 5 12 10 14 17 7 8 -8 8 -14 -1 -23z m166 4 c2 -7 -7
-12 -22 -12 -19 0 -26 5 -26 20 0 16 4 18 22 11 12 -4 24 -13 26 -19z m-223
-2 c0 -7 -6 -15 -12 -17 -8 -3 -13 4 -13 17 0 13 5 20 13 18 6 -3 12 -11 12
-18z m-2058 4 c-3 -3 -12 -4 -19 -1 -8 3 -5 6 6 6 11 1 17 -2 13 -5z m63 -4
c0 -5 -4 -10 -10 -10 -5 0 -10 5 -10 10 0 6 5 10 10 10 6 0 10 -4 10 -10z
m1620 -26 c0 -8 -5 -12 -10 -9 -6 4 -8 11 -5 16 9 14 15 11 15 -7z m83 -17
c-4 -21 -10 -27 -26 -25 -28 4 -34 28 -8 28 12 0 24 7 28 15 8 24 12 14 6 -18z
m-277 -32 c4 -43 -15 -43 -29 -1 -7 21 -6 30 4 37 18 11 21 6 25 -36z m664 20
c-7 -9 -15 -13 -19 -10 -3 3 1 10 9 15 21 14 24 12 10 -5z m-490 -5 c0 -5 -4
-10 -9 -10 -6 0 -13 5 -16 10 -3 6 1 10 9 10 9 0 16 -4 16 -10z m605 0 c4 -6
1 -17 -5 -25 -9 -10 -9 -19 -2 -27 7 -9 6 -17 -3 -25 -18 -17 -21 -11 -17 41
4 44 14 57 27 36z m-341 -44 c-6 -15 -24 -23 -24 -11 0 8 24 34 28 30 1 -1 0
-10 -4 -19z m-584 -7 c0 -11 -4 -17 -10 -14 -5 3 -10 13 -10 21 0 8 5 14 10
14 6 0 10 -9 10 -21z m370 11 c0 -5 -7 -10 -15 -10 -8 0 -15 -5 -15 -12 0 -6
-2 -9 -5 -6 -3 3 -3 13 1 22 7 17 34 22 34 6z m-300 -20 c0 -5 -7 -10 -15 -10
-8 0 -15 5 -15 10 0 6 7 10 15 10 8 0 15 -4 15 -10z m735 0 c3 -5 1 -10 -4
-10 -6 0 -11 5 -11 10 0 6 2 10 4 10 3 0 8 -4 11 -10z m198 -4 c26 -20 4 -29
-28 -12 -17 9 -22 16 -13 19 19 8 21 8 41 -7z m-676 -40 c-3 -10 -67 -17 -67
-8 0 2 10 12 23 22 16 13 25 15 35 8 7 -6 11 -16 9 -22z m543 9 c0 -14 -7 -28
-15 -32 -22 -8 -28 2 -21 32 8 33 36 33 36 0z m110 5 c0 -5 -4 -10 -10 -10 -5
0 -10 5 -10 10 0 6 5 10 10 10 6 0 10 -4 10 -10z m-898 -35 c-12 -22 -27 -2
-18 22 5 12 10 13 17 6 7 -7 8 -17 1 -28z m845 -17 c-3 -8 -6 -5 -6 6 -1 11 2
17 5 13 3 -3 4 -12 1 -19z m-827 -18 c0 -5 -2 -10 -4 -10 -3 0 -8 5 -11 10 -3
6 -1 10 4 10 6 0 11 -4 11 -10z m500 6 c0 -3 -4 -8 -10 -11 -5 -3 -10 -1 -10
4 0 6 5 11 10 11 6 0 10 -2 10 -4z m-44 -39 c25 4 35 2 40 -11 3 -9 16 -16 27
-16 20 0 20 -1 4 -17 -15 -15 -19 -16 -26 -4 -7 11 -15 7 -38 -18 -26 -30 -30
-32 -56 -20 -30 14 -32 22 -16 68 8 22 15 29 21 23 6 -6 25 -8 44 -5z m104 -7
c0 -5 -5 -10 -11 -10 -5 0 -7 5 -4 10 3 6 8 10 11 10 2 0 4 -4 4 -10z m435
-40 c10 15 35 12 35 -5 0 -8 -3 -15 -7 -16 -5 0 -19 -2 -33 -4 -31 -3 -60 11
-60 31 0 13 3 13 29 -1 19 -9 32 -11 36 -5z m84 -52 c5 -13 7 -25 5 -27 -7 -7
-34 21 -34 35 0 22 20 16 29 -8z m-732 -14 c-3 -3 -12 -4 -19 -1 -8 3 -5 6 6
6 11 1 17 -2 13 -5z m74 -16 c0 -10 2 -10 6 0 5 12 43 18 43 6 0 -10 -34 -69
-45 -76 -5 -4 -14 -8 -20 -8 -5 0 -5 4 2 8 13 8 2 35 -13 33 -5 -1 -10 10 -12
24 -3 20 1 25 17 25 12 0 21 -6 22 -12z m862 -30 c2 -7 4 -29 3 -48 -1 -26 -7
-37 -26 -47 -15 -7 -28 -9 -34 -3 -13 13 14 42 35 37 14 -4 17 1 17 24 -1 17
-7 29 -14 29 -7 0 -16 5 -19 10 -3 6 3 10 13 10 11 0 22 -6 25 -12z m-113 -28
c0 -11 -7 -20 -15 -20 -17 0 -18 2 -9 24 9 23 24 20 24 -4z m170 -61 c0 -6 7
-9 14 -6 10 4 13 1 9 -9 -7 -20 -20 -18 -33 6 -7 14 -7 20 0 20 5 0 10 -5 10
-11z m-8 -43 c4 3 8 -5 8 -17 0 -20 3 -21 50 -16 l50 6 -20 -21 c-11 -12 -20
-27 -20 -34 0 -18 17 -27 23 -12 4 10 7 11 18 1 20 -19 41 -15 68 12 13 14 35
26 50 27 14 0 32 2 39 2 8 1 18 9 23 19 6 9 14 15 19 12 17 -10 -14 -45 -39
-45 -20 0 -21 -2 -11 -15 7 -8 21 -15 31 -15 12 0 19 -7 19 -20 0 -10 9 -24
20 -30 14 -8 20 -8 20 1 0 14 41 48 58 49 15 0 16 27 1 32 -5 2 -7 11 -3 21 9
25 29 15 28 -14 -2 -29 11 -39 52 -39 31 0 53 -23 34 -35 -25 -15 -8 -27 30
-21 24 4 40 2 40 -4 0 -5 10 -9 21 -7 26 2 37 -18 15 -26 -9 -4 -22 1 -31 9
-12 13 -19 14 -30 4 -21 -18 -18 -40 5 -40 23 0 40 -28 40 -65 0 -37 17 -65
40 -65 28 0 25 12 -7 32 l-28 16 28 7 c32 8 51 37 36 52 -7 7 -6 12 4 16 9 3
17 -2 20 -14 7 -25 24 -24 32 1 3 11 11 20 16 20 6 0 8 -4 5 -9 -3 -5 2 -15
11 -22 12 -11 17 -11 20 -2 5 14 35 5 46 -14 9 -15 37 -18 37 -3 0 6 20 10 45
10 46 0 54 -7 33 -28 -6 -6 -8 -15 -4 -19 4 -4 10 -3 14 2 12 18 61 35 67 25
4 -6 -1 -10 -9 -10 -23 0 -30 -19 -13 -38 8 -9 12 -23 10 -29 -3 -9 6 -13 27
-13 27 0 30 -3 25 -20 -5 -14 -2 -20 10 -20 11 0 14 6 9 24 -5 20 -2 25 18 28
12 2 22 9 21 15 -1 6 7 13 17 16 11 3 20 1 20 -3 0 -5 3 -15 6 -24 4 -10 1
-16 -9 -16 -23 0 -29 -17 -15 -40 16 -26 45 -35 63 -20 18 15 55 -4 55 -27 0
-15 2 -15 13 2 8 10 19 15 25 11 7 -4 12 -3 12 2 0 5 10 13 23 18 28 13 93 -6
76 -23 -7 -7 -2 -15 17 -28 20 -13 28 -14 34 -5 11 17 90 3 90 -16 0 -8 8 -14
17 -14 9 0 27 -10 40 -21 18 -17 25 -19 37 -10 17 14 66 -5 66 -26 0 -9 14
-13 43 -13 33 -1 38 -3 25 -11 -10 -5 -18 -16 -18 -23 0 -16 -67 -84 -100
-101 -23 -12 -197 -34 -330 -41 -87 -6 -431 -4 -475 2 -22 3 -60 8 -85 11 -25
3 -51 10 -57 15 -7 6 -24 7 -38 4 -19 -5 -27 -2 -32 11 -10 30 -56 73 -77 73
-12 0 -47 28 -86 69 -36 38 -75 74 -87 80 -13 6 -23 18 -23 26 0 8 -13 21 -28
29 -16 8 -42 34 -58 58 -16 23 -44 58 -61 76 -18 18 -33 39 -33 47 0 8 -5 15
-11 15 -14 0 -52 48 -59 74 -4 12 -19 24 -37 29 -22 7 -36 21 -49 48 -11 21
-24 39 -31 39 -6 0 -20 14 -30 30 -9 17 -24 30 -33 30 -12 0 -13 2 -1 9 9 6
21 3 34 -10 11 -10 24 -16 29 -13z m172 -22 c22 -8 20 -21 -5 -35 -28 -14 -48
3 -29 26 14 17 13 17 34 9z m-231 -149 c12 -11 17 -12 21 -2 3 8 16 0 35 -23
35 -39 38 -50 14 -45 -10 2 -39 7 -65 10 -38 5 -47 10 -52 31 -11 43 17 60 47
29z m97 -97 c0 -6 -3 -8 -7 -5 -3 4 -12 2 -19 -4 -14 -12 -54 -3 -54 12 0 5
18 9 40 9 24 0 40 -5 40 -12z m2094 -297 c7 -11 -91 -19 -107 -9 -10 6 20 12
80 16 12 1 24 -2 27 -7z m-314 -50 c0 -5 -7 -11 -14 -14 -10 -4 -13 -1 -9 9 6
15 23 19 23 5z m-40 -18 c-1 -27 -15 -52 -32 -56 -20 -6 -20 -6 0 14 12 10 19
26 16 34 -4 8 -1 15 5 15 6 0 11 -3 11 -7z m-1339 -65 c7 -13 15 -25 18 -28
17 -13 84 -116 91 -139 4 -14 11 -34 15 -43 6 -14 2 -18 -18 -18 -13 0 -45
-12 -71 -26 -25 -14 -46 -21 -46 -16 0 6 6 13 13 16 6 3 -1 4 -18 1 -16 -3
-25 -2 -19 2 7 5 8 16 4 29 -7 17 -14 20 -36 16 -19 -3 -25 -1 -20 7 4 6 14
11 22 11 23 0 40 22 48 61 5 26 2 40 -8 49 -13 10 -13 15 1 36 12 19 13 28 4
37 -14 14 -14 27 -1 27 5 0 15 -10 21 -22z m1451 -20 c-7 -7 -12 -8 -12 -2 0
14 12 26 19 19 2 -3 -1 -11 -7 -17z m-172 -16 c0 -10 -9 -25 -20 -35 -11 -9
-20 -24 -20 -32 0 -8 -4 -15 -9 -15 -5 0 -19 -16 -32 -35 -13 -19 -32 -38 -41
-41 -10 -3 -18 -12 -18 -20 0 -8 -6 -14 -13 -14 -19 0 -41 -40 -28 -53 21 -21
13 -54 -14 -61 -14 -4 -30 -4 -35 -1 -6 3 -15 -5 -22 -19 -9 -21 -18 -26 -49
-26 -32 0 -36 3 -32 20 3 11 9 20 14 20 5 0 9 6 9 13 1 6 22 28 47 47 70 53
108 91 127 128 9 17 21 32 26 32 16 0 78 64 85 88 8 26 25 30 25 4z m137 -38
c3 -10 -51 -44 -70 -44 -6 0 2 14 18 30 28 29 45 34 52 14z m95 -63 c29 -16
54 -34 56 -39 2 -7 -25 -10 -72 -9 -71 1 -74 2 -60 18 9 10 22 15 30 12 8 -3
14 0 14 6 0 6 -7 11 -15 11 -8 0 -15 7 -15 15 0 20 1 20 62 -14z m-147 -91 c3
-5 -1 -10 -9 -10 -9 0 -16 5 -16 10 0 6 4 10 9 10 6 0 13 -4 16 -10z m-1080
-22 c-1 -13 -8 -23 -16 -23 -8 0 -15 10 -17 23 -3 16 2 22 16 22 13 0 18 -6
17 -22z m113 -43 c-13 -11 -29 -32 -36 -47 -6 -16 -16 -28 -21 -28 -16 0 -23
20 -13 33 6 7 12 26 14 42 2 23 9 31 28 33 14 2 30 8 35 13 7 7 11 4 14 -7 2
-10 -8 -27 -21 -39z m1102 -10 c0 -8 -7 -15 -15 -15 -16 0 -20 12 -8 23 11 12
23 8 23 -8z m-780 -64 c0 -5 -7 -11 -15 -15 -9 -3 -15 0 -15 9 0 8 7 15 15 15
8 0 15 -4 15 -9z m-760 -185 c0 -5 -7 -3 -15 4 -8 7 -12 17 -9 22 7 10 24 -9
24 -26z m1214 -11 c-18 -27 -34 -25 -34 6 0 14 7 19 25 19 25 0 25 -1 9 -25z
m-1271 -12 c-7 -2 -19 -2 -25 0 -7 3 -2 5 12 5 14 0 19 -2 13 -5z m224 -24 c6
-6 9 -17 7 -24 -8 -19 -44 -6 -44 16 0 21 20 25 37 8z m1238 -8 c-8 -14 -67
-42 -74 -35 -9 9 39 44 61 44 10 0 17 -4 13 -9z m-1045 -31 c0 -5 -5 -10 -11
-10 -5 0 -7 5 -4 10 3 6 8 10 11 10 2 0 4 -4 4 -10z m1 -86 c-2 -10 -5 -46 -5
-79 -2 -62 -11 -95 -27 -95 -10 0 -5 113 7 168 3 18 12 31 18 29 6 -2 9 -13 7
-23z m784 -244 c-3 -5 -15 -10 -26 -10 -11 0 -17 5 -14 10 3 6 15 10 26 10 11
0 17 -4 14 -10z m-841 -85 c-4 -8 -10 -15 -15 -15 -4 0 -6 7 -3 15 4 8 10 15
15 15 4 0 6 -7 3 -15z m-440 -32 c7 -18 -20 -47 -35 -37 -11 6 -12 38 -2 47
12 13 31 7 37 -10z m1610 -79 c4 -9 4 -19 1 -22 -6 -6 -35 18 -35 29 0 16 28
10 34 -7z m-34 -74 c0 -5 -5 -10 -11 -10 -5 0 -7 5 -4 10 3 6 8 10 11 10 2 0
4 -4 4 -10z m-841 -84 c19 -23 2 -134 -32 -201 -16 -33 -30 -61 -32 -63 -8 -9
-36 15 -50 44 -14 30 -15 42 -4 89 7 30 20 62 31 71 10 10 18 23 18 29 0 12
37 43 51 44 4 1 12 -5 18 -13z m682 -16 c15 0 34 -7 43 -15 14 -14 13 -19 -2
-50 -13 -26 -24 -35 -42 -35 -19 0 -26 -6 -27 -21 -1 -11 -12 -29 -25 -40 -13
-10 -30 -25 -38 -33 -26 -24 -185 -103 -224 -110 -20 -4 -40 -14 -43 -22 -3
-7 -13 -14 -23 -14 -10 0 -20 -10 -23 -21 -4 -16 -11 -20 -27 -16 -23 6 -76
-17 -87 -38 -5 -8 -26 -17 -48 -20 -45 -8 -43 -13 -47 113 -3 78 7 84 121 73
98 -9 119 -6 216 28 84 30 159 110 178 192 7 28 46 52 62 38 5 -5 21 -9 36 -9z
m-1771 -90 c0 -5 -7 -7 -15 -4 -8 4 -15 8 -15 10 0 2 7 4 15 4 8 0 15 -4 15
-10z m1535 -60 c-10 -11 -25 -20 -33 -20 -12 0 -12 4 3 20 10 11 25 20 33 20
12 0 12 -4 -3 -20z m-80 -40 c7 -11 -42 -26 -53 -16 -7 8 17 26 35 26 6 0 15
-4 18 -10z m-1377 -26 c26 -18 29 -34 6 -34 -18 0 -44 23 -44 39 0 15 12 14
38 -5z"/>
<path d="M3537 6645 c-8 -19 2 -24 36 -18 25 5 26 6 10 19 -24 18 -40 17 -46
-1z"/>
<path d="M3333 6643 c9 -2 23 -2 30 0 6 3 -1 5 -18 5 -16 0 -22 -2 -12 -5z"/>
<path d="M3647 6627 c-11 -29 -9 -43 4 -30 6 6 9 19 7 29 -3 18 -4 18 -11 1z"/>
<path d="M3447 6593 c-12 -11 -8 -75 3 -68 6 4 8 15 5 26 -4 12 -1 21 9 25 9
3 16 10 16 15 0 10 -24 12 -33 2z"/>
<path d="M3526 6583 c-11 -11 -6 -23 9 -23 8 0 15 4 15 9 0 13 -16 22 -24 14z"/>
<path d="M3650 6537 c0 -17 5 -27 15 -27 19 0 19 9 0 34 -14 19 -15 19 -15 -7z"/>
<path d="M3732 6540 c0 -14 2 -19 5 -12 2 6 2 18 0 25 -3 6 -5 1 -5 -13z"/>
<path d="M3940 6490 c0 -5 5 -10 10 -10 6 0 10 5 10 10 0 6 -4 10 -10 10 -5 0
-10 -4 -10 -10z"/>
<path d="M4007 6493 c-10 -9 13 -33 30 -33 10 0 13 6 9 16 -3 9 -6 18 -6 20 0
7 -26 5 -33 -3z"/>
<path d="M3730 6455 c0 -8 7 -15 15 -15 8 0 15 7 15 15 0 8 -7 15 -15 15 -8 0
-15 -7 -15 -15z"/>
<path d="M3955 6440 c-7 -12 2 -30 16 -30 5 0 9 9 9 20 0 21 -15 27 -25 10z"/>
<path d="M3528 6403 c7 -3 16 -2 19 1 4 3 -2 6 -13 5 -11 0 -14 -3 -6 -6z"/>
<path d="M4102 6394 c-26 -18 -29 -37 -6 -32 9 2 20 13 25 26 10 26 10 26 -19
6z"/>
<path d="M4114 6315 c21 -16 32 -13 21 4 -3 6 -14 11 -23 11 -15 -1 -15 -2 2
-15z"/>
<path d="M545 7502 c-8 -21 9 -35 34 -27 16 5 19 10 12 22 -12 22 -38 25 -46
5z"/>
<path d="M640 7492 c0 -7 -7 -12 -15 -12 -8 0 -15 -7 -15 -15 0 -23 28 -18 35
6 4 11 4 23 1 26 -3 4 -6 1 -6 -5z"/>
<path d="M748 7483 c7 -3 16 -2 19 1 4 3 -2 6 -13 5 -11 0 -14 -3 -6 -6z"/>
<path d="M248 7428 c9 -9 15 -9 24 0 9 9 7 12 -12 12 -19 0 -21 -3 -12 -12z"/>
<path d="M1222 7368 c2 -6 10 -14 16 -16 7 -2 10 2 6 12 -7 18 -28 22 -22 4z"/>
<path d="M802 7309 c2 -7 10 -15 17 -17 8 -3 12 1 9 9 -2 7 -10 15 -17 17 -8
3 -12 -1 -9 -9z"/>
<path d="M296 7291 c-3 -5 2 -19 12 -31 14 -17 22 -19 42 -12 l25 10 -27 7
c-16 4 -28 13 -28 21 0 16 -16 19 -24 5z"/>
<path d="M375 7290 c-19 -8 -19 -9 3 -9 12 -1 22 4 22 9 0 6 -1 10 -2 9 -2 0
-12 -4 -23 -9z"/>
<path d="M1063 7263 c-13 -2 -23 -11 -23 -19 0 -9 5 -12 11 -8 7 4 21 7 32 8
11 1 22 7 25 14 4 12 -4 13 -45 5z"/>
<path d="M460 7241 c0 -11 26 -22 34 -14 12 12 5 23 -14 23 -11 0 -20 -4 -20
-9z"/>
<path d="M755 7230 c-8 -12 20 -24 35 -15 5 3 10 10 10 16 0 12 -37 12 -45 -1z"/>
<path d="M910 7220 c0 -5 5 -10 10 -10 6 0 10 5 10 10 0 6 -4 10 -10 10 -5 0
-10 -4 -10 -10z"/>
<path d="M981 7216 c-15 -18 -3 -26 37 -26 22 0 32 4 30 12 -6 18 -55 28 -67
14z"/>
<path d="M158 7214 c-3 -3 -4 -13 -1 -24 5 -18 30 -30 66 -30 16 0 15 3 -5 30
-20 28 -46 38 -60 24z"/>
<path d="M276 7201 c-30 -12 -1 -24 37 -15 28 6 30 8 12 15 -25 9 -25 9 -49 0z"/>
<path d="M1150 7200 c-26 -16 -3 -22 27 -6 23 13 24 15 8 15 -11 1 -27 -3 -35
-9z"/>
<path d="M2399 7181 c12 -12 28 -18 33 -15 13 8 -1 20 -32 28 l-25 7 24 -20z"/>
<path d="M1080 7179 c0 -5 5 -7 10 -4 6 3 10 8 10 11 0 2 -4 4 -10 4 -5 0 -10
-5 -10 -11z"/>
<path d="M541 7171 c-10 -6 -10 -10 -1 -16 13 -8 24 -1 19 14 -3 6 -10 7 -18
2z"/>
<path d="M400 7148 c0 -16 5 -28 10 -28 13 0 13 20 0 40 -8 12 -10 9 -10 -12z"/>
<path d="M777 7136 c-6 -15 1 -26 15 -26 4 0 8 9 8 20 0 23 -15 27 -23 6z"/>
<path d="M490 7116 c0 -9 30 -14 35 -6 4 6 -3 10 -14 10 -12 0 -21 -2 -21 -4z"/>
<path d="M1147 7084 c-13 -13 -7 -24 14 -24 11 0 19 5 17 12 -5 14 -22 21 -31
12z"/>
<path d="M1040 7070 c0 -5 5 -10 10 -10 6 0 10 5 10 10 0 6 -4 10 -10 10 -5 0
-10 -4 -10 -10z"/>
<path d="M1680 7059 c-10 -18 -9 -20 7 -17 10 2 19 11 21 21 5 24 -15 21 -28
-4z"/>
<path d="M1748 7074 c-8 -7 12 -54 23 -54 4 0 11 5 14 10 3 6 1 10 -5 10 -6 0
-14 9 -18 20 -4 12 -11 18 -14 14z"/>
<path d="M0 7020 c0 -13 5 -20 13 -17 6 2 12 10 12 17 0 7 -6 15 -12 18 -8 2
-13 -5 -13 -18z"/>
<path d="M1570 7030 c0 -5 5 -10 10 -10 6 0 10 5 10 10 0 6 -4 10 -10 10 -5 0
-10 -4 -10 -10z"/>
<path d="M1660 7022 c0 -18 19 -24 37 -13 10 6 13 11 6 11 -6 0 -18 3 -27 6
-9 3 -16 1 -16 -4z"/>
<path d="M640 7010 c0 -13 11 -13 30 0 12 8 11 10 -7 10 -13 0 -23 -4 -23 -10z"/>
<path d="M1921 7015 c-1 -15 20 -35 36 -35 7 0 13 5 13 10 0 6 -9 10 -19 10
-11 0 -22 6 -24 13 -3 6 -6 7 -6 2z"/>
<path d="M2590 6990 c0 -11 5 -20 10 -20 6 0 10 9 10 20 0 11 -4 20 -10 20 -5
0 -10 -9 -10 -20z"/>
<path d="M1775 6990 c3 -5 8 -10 11 -10 2 0 4 5 4 10 0 6 -5 10 -11 10 -5 0
-7 -4 -4 -10z"/>
<path d="M460 6970 c-12 -8 -10 -10 8 -10 13 0 20 4 17 10 -7 12 -6 12 -25 0z"/>
<path d="M1833 6973 c-7 -2 -13 -10 -13 -15 0 -6 3 -9 6 -5 8 7 34 -17 34 -32
0 -5 -10 -13 -22 -17 -12 -3 -32 -16 -45 -28 l-24 -22 21 -19 c27 -25 25 -38
-5 -33 -14 3 -25 1 -25 -3 0 -5 10 -9 22 -9 12 0 30 -8 40 -17 23 -20 41 -6
36 28 -2 16 -11 25 -26 27 -37 5 -24 38 14 35 l30 -3 -1 58 c0 57 -9 69 -42
55z"/>
<path d="M878 6963 c7 -3 16 -2 19 1 4 3 -2 6 -13 5 -11 0 -14 -3 -6 -6z"/>
<path d="M1448 6963 c6 -2 18 -2 25 0 6 3 1 5 -13 5 -14 0 -19 -2 -12 -5z"/>
<path d="M770 6940 c-12 -8 -11 -10 8 -10 12 0 22 -5 22 -12 0 -9 3 -9 11 -1
24 24 -11 43 -41 23z"/>
<path d="M2460 6870 c0 -5 5 -10 10 -10 6 0 10 5 10 10 0 6 -4 10 -10 10 -5 0
-10 -4 -10 -10z"/>
<path d="M1640 6840 c0 -5 5 -10 10 -10 6 0 10 5 10 10 0 6 -4 10 -10 10 -5 0
-10 -4 -10 -10z"/>
<path d="M1694 6839 c-10 -17 13 -36 27 -22 12 12 4 33 -11 33 -5 0 -12 -5
-16 -11z"/>
<path d="M2636 6761 c-4 -7 -5 -15 -2 -18 9 -9 19 4 14 18 -4 11 -6 11 -12 0z"/>
<path d="M1110 6712 c0 -12 3 -12 15 -2 8 7 15 13 15 15 0 1 -7 2 -15 2 -8 0
-15 -7 -15 -15z"/>
<path d="M1062 6668 c4 -43 23 -46 25 -3 1 25 -3 35 -13 35 -11 0 -14 -9 -12
-32z"/>
<path d="M2635 6590 c3 -5 8 -10 11 -10 2 0 4 5 4 10 0 6 -5 10 -11 10 -5 0
-7 -4 -4 -10z"/>
<path d="M235 6540 c-3 -5 1 -10 9 -10 9 0 16 5 16 10 0 6 -4 10 -9 10 -6 0
-13 -4 -16 -10z"/>
<path d="M1918 6478 c5 -5 16 -8 23 -6 8 3 3 7 -10 11 -17 4 -21 3 -13 -5z"/>
<path d="M2453 6405 c-13 -5 -23 -13 -23 -18 0 -7 38 0 49 9 12 10 -8 18 -26
9z"/>
<path d="M2800 6386 c0 -10 -6 -16 -16 -14 -10 2 -19 -3 -21 -9 -3 -8 4 -13
15 -13 20 0 40 35 28 47 -3 4 -6 -1 -6 -11z"/>
<path d="M1087 6282 c-21 -23 -13 -32 30 -32 36 0 39 6 19 33 -17 22 -29 22
-49 -1z"/>
<path d="M3172 6079 c2 -7 10 -15 17 -17 8 -3 12 1 9 9 -2 7 -10 15 -17 17 -8
3 -12 -1 -9 -9z"/>
<path d="M3120 6069 c0 -5 5 -7 10 -4 6 3 10 8 10 11 0 2 -4 4 -10 4 -5 0 -10
-5 -10 -11z"/>
<path d="M3315 6060 c-3 -5 1 -10 10 -10 9 0 13 5 10 10 -3 6 -8 10 -10 10 -2
0 -7 -4 -10 -10z"/>
<path d="M3368 5953 c7 -3 16 -2 19 1 4 3 -2 6 -13 5 -11 0 -14 -3 -6 -6z"/>
<path d="M2902 5930 c-6 -11 -12 -27 -12 -37 0 -9 -10 -27 -22 -40 -12 -13
-16 -23 -10 -23 7 0 12 -8 12 -18 0 -10 6 -26 13 -36 12 -17 14 -17 27 -1 8 9
14 32 14 51 0 18 3 29 7 23 8 -13 22 28 19 56 -2 21 -18 45 -29 45 -3 0 -12
-9 -19 -20z"/>
<path d="M2533 5813 c-21 -8 -15 -22 7 -16 11 3 20 9 20 14 0 10 -8 10 -27 2z"/>
<path d="M2305 5790 c-11 -4 -29 -6 -41 -3 -20 4 -173 -23 -183 -33 -5 -4 54
-8 79 -5 8 1 47 6 85 12 39 5 80 11 93 12 12 1 23 7 25 12 3 13 -32 16 -58 5z"/>
<path d="M2478 5793 c7 -3 16 -2 19 1 4 3 -2 6 -13 5 -11 0 -14 -3 -6 -6z"/>
<path d="M1922 5743 c-41 -8 -15 -18 37 -15 28 2 48 8 45 13 -5 9 -40 10 -82
2z"/>
<path d="M1328 5683 c-29 -7 -21 -23 11 -23 34 0 49 15 25 24 -9 3 -16 5 -17
5 -1 -1 -10 -3 -19 -6z"/>
<path d="M1170 5660 c0 -5 9 -10 21 -10 11 0 17 5 14 10 -3 6 -13 10 -21 10
-8 0 -14 -4 -14 -10z"/>
<path d="M700 5606 c0 -10 28 -13 41 -5 10 6 7 9 -13 9 -16 0 -28 -2 -28 -4z"/>
<path d="M400 5570 c0 -13 20 -13 40 0 12 8 9 10 -12 10 -16 0 -28 -4 -28 -10z"/>
<path d="M325 5560 c8 -13 35 -13 55 0 11 7 5 10 -23 10 -23 0 -36 -4 -32 -10z"/>
<path d="M125 5540 c-3 -5 3 -10 14 -10 11 0 23 5 26 10 3 6 -3 10 -14 10 -11
0 -23 -4 -26 -10z"/>
<path d="M3440 5438 c0 -22 -7 -37 -20 -46 -11 -7 -20 -19 -20 -27 0 -21 38
-19 43 3 14 47 17 91 7 97 -6 4 -10 -7 -10 -27z"/>
<path d="M3490 5370 c0 -5 7 -10 15 -10 8 0 15 5 15 10 0 6 -7 10 -15 10 -8 0
-15 -4 -15 -10z"/>
<path d="M1187 5017 c-10 -15 -26 -27 -36 -27 -17 0 -37 -38 -26 -49 3 -2 5 1
5 7 0 7 10 12 23 12 25 1 60 42 55 67 -2 13 -7 11 -21 -10z"/>
<path d="M3739 4997 c-18 -14 -33 -74 -19 -82 16 -10 40 26 40 61 0 38 1 38
-21 21z"/>
<path d="M2967 4951 c-26 -26 -47 -55 -47 -63 0 -9 -7 -18 -15 -22 -8 -3 -15
-14 -15 -24 0 -10 -5 -23 -12 -30 -9 -9 -9 -15 -1 -23 14 -14 67 13 87 44 16
26 60 156 54 162 -2 2 -25 -17 -51 -44z"/>
<path d="M3986 4941 c-3 -5 1 -12 10 -15 20 -8 29 -1 19 13 -8 13 -22 14 -29
2z"/>
<path d="M1106 4921 c-4 -7 -5 -15 -2 -18 9 -9 19 4 14 18 -4 11 -6 11 -12 0z"/>
<path d="M3720 4856 c0 -43 7 -48 36 -29 31 20 30 28 -6 47 l-30 14 0 -32z"/>
<path d="M1075 4840 c-8 -9 -15 -23 -15 -30 0 -9 5 -8 14 5 7 11 20 16 29 12
12 -4 27 10 27 27 0 9 -44 -2 -55 -14z"/>
<path d="M3727 4787 c-11 -29 -9 -43 4 -30 6 6 9 19 7 29 -3 18 -4 18 -11 1z"/>
<path d="M1031 4744 c0 -11 3 -14 6 -6 3 7 2 16 -1 19 -3 4 -6 -2 -5 -13z"/>
<path d="M2980 4431 c0 -6 9 -15 20 -21 13 -7 20 -7 20 -1 0 6 -9 15 -20 21
-13 7 -20 7 -20 1z"/>
</g>
</svg>
